# xmcd
#
# Track frame offsets:
#	150
#	14037
#	29318
#	72468
#	83776
#	92331
#	106760
#	131423
#	159806
#	191111
#	210630
#	221926
#	236937
#	257418
#	281259
#	303096
#
# Disc length: 4323
#
# Revision: 1
# Processed by: cddbd v1.5.1PL0 Copyright (c) Steve Scherf et al.
# Submitted via: CDex 1.50
# Normalized: r0:DSETVAR1,TDELIM( - )
#
DISCID=d710e110
DTITLE=Various Artist - Bar Jazz Vol.5
DYEAR=2003
DGENRE=Jazz
TTITLE0=The Manhatan Transfer - Choo Choo Ch'Boogie
TTITLE1=Louis Armstrong - Mack Knife (Live)
TTITLE2=Hank Crawford - You've Got It Bad Girl
TTITLE3=Jimmy Rushing - I'm Coming Virginia
TTITLE4=Al Di Meola - Bianca's Midnight
TTITLE5=Betty Carter - Open The Door
TTITLE6=Chet Baker and Paul Desmond - Tengerine
TTITLE7=George Benson - Mr. Airy Road
TTITLE8=Charles Mingus - Things Ain't What They Used To Be
TTITLE9=The Benny Goodman Sexted - After You've Gone (live)
TTITLE10=Etta James and Hank Krawford - Night Time Is The Right Time
TTITLE11=Tommy Flangan - Blue Velvet
TTITLE12=Kirk Whalum - Living For The City
TTITLE13=Deodato - September 13
TTITLE14=Peter White - Venice Beach
TTITLE15=Hank Crawford - Sugar Free
EXTD=YEAR: 2003
EXTT0=
EXTT1=
EXTT2=
EXTT3=
EXTT4=
EXTT5=
EXTT6=
EXTT7=
EXTT8=
EXTT9=
EXTT10=
EXTT11=
EXTT12=
EXTT13=
EXTT14=
EXTT15=
PLAYORDER=
